<?xml version="1.0" standalone="no"?>
<!DOCTYPE svg PUBLIC "-//W3C//DTD SVG 20010904//EN"
 "http://www.w3.org/TR/2001/REC-SVG-20010904/DTD/svg10.dtd">
<svg version="1.0" xmlns="http://www.w3.org/2000/svg"
 width="460.000000pt" height="460.000000pt" viewBox="0 0 460.000000 460.000000"
 preserveAspectRatio="xMidYMid meet">
<metadata>
Created by potrace 1.14, written by Peter Selinger 2001-2017
</metadata>
<g transform="translate(0.000000,460.000000) scale(0.100000,-0.100000)"
fill="#000000" stroke="none">
<path d="M545 3535 l-545 -546 2 -222 3 -222 543 1 542 0 1 -185 c0 -103 0
-225 0 -273 l-1 -88 272 0 273 0 0 493 0 492 -505 2 c-278 1 -522 2 -543 2
-40 1 -40 5 5 49 9 9 30 30 45 45 15 15 36 35 45 45 10 9 31 31 48 47 16 17
34 35 40 40 26 23 66 64 82 81 9 11 29 31 45 46 15 14 33 32 39 40 7 7 27 28
45 45 19 18 41 41 50 50 10 10 30 30 45 45 40 38 59 58 97 97 17 18 40 41 51
50 16 14 30 28 72 72 5 5 43 43 84 84 41 42 83 83 92 93 25 25 71 71 90 90 9
9 28 26 42 37 14 11 26 23 26 28 0 4 -121 7 -269 7 l-270 0 -546 -545z"/>
<path d="M1870 3973 c-1 -267 0 -426 3 -429 1 -2 122 116 267 261 145 146 267
265 270 265 3 0 5 -120 5 -267 l-1 -268 -272 -272 -272 -272 0 -80 c-1 -45 -1
-137 -1 -206 0 -69 0 -156 1 -195 l0 -70 545 0 545 0 0 68 c2 284 0 465 -4
470 -3 3 -126 -115 -272 -261 -147 -147 -267 -267 -268 -267 -1 0 -1 120 -1
268 1 260 1 268 23 297 12 17 36 39 52 50 16 11 30 23 30 27 0 3 53 58 118
122 64 64 120 119 125 123 4 5 20 22 36 38 16 17 35 36 43 43 7 6 37 36 65 65
l53 52 0 215 c1 118 1 241 1 273 l-1 57 -545 0 -545 0 0 -107z"/>
<path d="M1870 1730 c0 -221 2 -269 14 -273 8 -3 17 -3 20 0 3 4 6 126 6 273
0 259 -1 266 -20 267 -20 2 -20 -4 -20 -267z"/>
<path d="M2656 1885 c-87 -30 -133 -146 -86 -222 27 -46 63 -65 123 -69 95 -5
165 56 172 150 8 104 -102 178 -209 141z m122 -83 c15 -20 15 -80 -1 -112 -17
-33 -67 -47 -108 -30 -33 14 -61 62 -52 89 12 40 28 61 52 70 35 12 93 3 109
-17z"/>
<path d="M2147 1753 c-9 -76 -17 -142 -17 -148 0 -6 29 -9 75 -7 41 2 75 7 75
12 0 5 3 15 6 24 5 13 -2 16 -40 16 l-47 0 7 57 c3 32 7 60 9 63 2 3 6 31 9
63 l7 57 -33 0 -34 0 -17 -137z"/>
<path d="M2300 1886 c0 -3 18 -40 39 -83 36 -71 38 -82 31 -123 -16 -79 -15
-82 27 -78 l38 3 2 58 c1 56 24 102 67 142 14 13 56 73 56 80 0 3 -17 5 -37 5
-33 0 -42 -6 -66 -40 -16 -22 -32 -40 -37 -40 -5 0 -19 18 -30 40 -18 35 -25
40 -55 40 -19 0 -35 -2 -35 -4z"/>
<path d="M2929 1873 c-3 -44 -22 -174 -35 -245 -5 -26 -3 -28 30 -28 20 0 36
3 37 8 0 4 2 18 4 32 2 14 7 51 10 84 l7 58 29 -33 c17 -19 35 -46 42 -60 24
-51 64 -89 95 -89 16 0 29 5 29 13 0 13 13 111 18 136 1 9 6 44 10 79 l7 62
-34 0 c-21 0 -35 -5 -35 -12 -1 -45 -16 -154 -22 -161 -7 -7 -51 42 -62 68 -2
6 -19 31 -38 58 -27 37 -41 47 -63 47 -20 0 -28 -5 -29 -17z"/>
<path d="M2242 1417 c-5 -7 -17 -30 -26 -52 -10 -22 -24 -52 -31 -67 -7 -15
-17 -42 -20 -60 -4 -18 -11 -38 -16 -43 -4 -6 -12 -22 -18 -37 -9 -25 -8 -26
24 -25 27 1 37 7 45 28 10 22 19 28 54 31 62 5 73 0 85 -33 8 -25 15 -29 41
-27 35 3 36 6 11 61 -10 23 -31 76 -45 117 -15 41 -33 84 -40 95 -15 23 -50
30 -64 12z m52 -154 c7 -21 4 -23 -24 -23 -25 0 -30 3 -26 18 3 9 8 30 12 46
l7 29 12 -24 c7 -13 16 -34 19 -46z"/>
<path d="M2963 1324 c-59 -30 -78 -81 -51 -138 25 -56 106 -76 156 -39 50 37
29 58 -40 39 -29 -8 -72 9 -63 25 4 5 37 9 76 9 74 0 78 4 60 53 -11 27 -55
59 -87 63 -12 1 -35 -4 -51 -12z m71 -40 c29 -11 16 -24 -24 -24 -38 0 -54 13
-27 23 18 8 33 8 51 1z"/>
<path d="M3250 1332 c-8 -2 -21 -11 -27 -20 -12 -14 -13 -14 -13 1 0 20 -55
24 -62 5 -2 -7 -4 -51 -3 -98 l1 -85 32 -1 c32 0 32 0 32 47 0 71 14 99 48 99
22 0 28 5 30 24 2 25 -13 36 -38 28z"/>
<path d="M3348 1317 c-77 -52 -44 -187 45 -187 16 0 37 5 48 10 16 9 19 7 19
-10 0 -28 -44 -48 -71 -32 -19 12 -79 17 -79 6 0 -19 26 -48 54 -59 54 -23
128 -2 142 39 8 25 15 204 8 229 -6 18 -54 25 -54 7 0 -7 -7 -7 -21 0 -36 20
-57 19 -91 -3z m101 -51 c18 -22 10 -70 -12 -74 -40 -8 -67 7 -67 36 0 15 5
33 12 40 16 16 53 15 67 -2z"/>
<path d="M3873 1333 c-27 -5 -73 -64 -73 -93 0 -30 29 -89 49 -99 16 -9 52
-14 83 -12 20 1 80 50 74 60 -6 9 -58 7 -74 -3 -18 -11 -59 1 -66 19 -4 13 7
15 69 15 74 0 75 0 75 26 0 28 -49 84 -73 84 -9 0 -21 2 -29 4 -7 2 -23 1 -35
-1z m65 -60 c2 -9 -8 -13 -32 -13 -34 0 -44 8 -29 24 11 11 56 2 61 -11z"/>
<path d="M2439 1318 c-8 -118 -5 -133 22 -160 23 -23 36 -28 78 -28 72 0 91
27 91 127 l0 74 -27 -3 c-27 -3 -28 -5 -29 -61 -1 -65 -11 -80 -45 -75 -22 3
-24 8 -26 58 -1 30 -2 61 -2 68 -1 7 -14 12 -31 12 -17 0 -30 -5 -31 -12z"/>
<path d="M2667 1313 c11 -29 83 -167 92 -176 16 -16 38 6 73 71 20 37 41 79
47 95 10 26 9 27 -23 27 -30 0 -36 -5 -57 -49 l-23 -49 -25 49 c-23 43 -29 49
-58 49 -27 0 -31 -3 -26 -17z"/>
<path d="M3570 1231 l0 -99 30 2 c30 1 30 1 30 58 0 72 7 88 35 88 29 0 35
-16 35 -91 0 -59 0 -60 28 -56 l27 4 0 87 c0 66 -4 89 -15 96 -20 13 -67 13
-91 0 -13 -7 -19 -7 -19 0 0 5 -13 10 -30 10 l-30 0 0 -99z"/>
<path d="M4052 1246 c3 -29 5 -31 51 -31 46 -1 59 6 63 32 3 19 -16 27 -69 29
-48 1 -48 1 -45 -30z"/>
<path d="M2410 775 l0 -155 30 0 c29 0 29 1 32 61 3 65 19 88 52 76 12 -5 16
-20 16 -72 l0 -65 33 0 33 0 -1 82 c-2 71 -5 84 -25 100 -27 22 -58 23 -88 2
l-22 -15 0 70 0 71 -30 0 -30 0 0 -155z"/>
<path d="M2710 902 c-22 -19 -29 -32 -25 -45 7 -16 9 -16 40 3 29 18 34 18 45
5 15 -18 47 -20 52 -3 4 12 -56 68 -73 68 -5 0 -23 -12 -39 -28z"/>
<path d="M3849 928 c-1 -2 -2 -72 -3 -155 l-1 -153 32 0 33 0 0 155 0 155 -30
0 c-16 0 -31 -1 -31 -2z"/>
<path d="M2159 903 c-1 -5 -2 -70 -2 -145 l-2 -138 33 0 32 0 0 58 0 57 37
-57 c35 -54 40 -58 75 -58 21 0 38 3 38 7 0 3 -18 30 -40 60 l-41 53 25 10
c50 19 47 119 -4 145 -30 15 -149 21 -151 8z m119 -85 c2 -19 -3 -30 -18 -38
-28 -15 -40 -5 -40 36 0 33 2 35 28 32 21 -2 28 -9 30 -30z"/>
<path d="M3621 848 c-15 -35 -36 -88 -46 -118 -10 -30 -24 -64 -31 -75 -21
-29 -17 -35 19 -35 24 0 35 6 42 23 8 18 19 22 67 25 54 3 59 1 70 -23 9 -20
18 -25 46 -25 24 0 32 4 29 13 -3 6 -20 48 -38 92 -18 44 -41 104 -53 132 -18
46 -25 53 -49 53 -24 0 -31 -8 -56 -62z m72 -80 l16 -38 -34 0 -34 0 17 39 c9
22 18 39 18 38 1 -1 9 -19 17 -39z"/>
<path d="M2675 788 c-49 -47 -51 -92 -5 -139 52 -55 145 -43 184 22 20 34 20
52 1 89 -19 36 -62 60 -110 60 -26 0 -44 -8 -70 -32z m115 -58 c13 -53 -15
-79 -62 -56 -49 24 -29 89 26 84 23 -2 32 -9 36 -28z"/>
<path d="M2900 718 l0 -98 34 0 33 0 -2 58 c-2 74 1 82 35 82 34 0 40 -14 40
-86 0 -53 0 -54 30 -54 l30 0 0 75 c0 67 -3 79 -25 100 -26 27 -49 31 -88 16
-14 -6 -28 -7 -31 -4 -3 4 -17 7 -31 8 l-25 1 0 -98z"/>
<path d="M3175 797 c-31 -26 -45 -100 -26 -135 27 -51 118 -66 162 -26 34 31
14 54 -31 37 -35 -14 -56 -13 -67 4 -7 9 -13 19 -13 22 0 4 32 6 70 6 62 -1
70 1 70 18 0 27 -27 75 -49 87 -34 18 -88 12 -116 -13z m102 -42 c3 -9 -13
-11 -60 -6 -5 1 -5 6 -2 12 8 13 57 8 62 -6z"/>
<path d="M3962 805 c-4 -5 -7 -72 -7 -147 l-1 -138 33 0 c35 0 35 1 35 66 l-1
41 38 -10 c33 -9 42 -7 70 12 58 42 67 103 22 153 -28 32 -32 33 -106 33 -42
0 -80 -4 -83 -10z m132 -51 c22 -8 21 -70 0 -82 -19 -11 -55 -4 -66 12 -12 18
-9 64 5 69 18 8 43 8 61 1z"/>
<path d="M4247 800 c-69 -55 -47 -165 39 -186 36 -9 84 7 101 33 14 20 14 23
-1 29 -9 3 -24 3 -33 -2 -35 -15 -63 -13 -73 6 -13 25 -7 27 68 25 57 -2 62 0
62 19 0 23 -23 63 -48 84 -24 19 -86 15 -115 -8z m100 -45 c2 -5 -13 -10 -32
-10 -34 -1 -42 5 -28 19 10 10 56 3 60 -9z"/>
<path d="M4477 806 c-21 -16 -26 -69 -8 -90 7 -8 26 -18 42 -21 44 -10 30 -30
-18 -28 -74 4 -61 -44 14 -54 31 -4 43 0 66 21 35 32 35 68 1 95 -15 12 -33
21 -40 21 -8 0 -14 5 -14 11 0 7 9 9 23 5 16 -4 26 1 36 15 16 27 11 30 -41
35 -28 3 -49 0 -61 -10z"/>
<path d="M3390 728 c0 -27 1 -28 56 -28 54 0 55 0 52 27 -3 26 -6 28 -55 29
-52 0 -53 -1 -53 -28z"/>
</g>
</svg>
